<svg width="48" height="49" viewBox="0 0 48 49" fill="none" xmlns="http://www.w3.org/2000/svg">
<path d="M48.0003 3.81182V18.2118C48.0003 19.9808 46.5673 21.4118 44.8003 21.4118H32.0002C30.2332 21.4118 28.8002 19.9808 28.8002 18.2118C28.8002 16.4428 30.2332 15.0118 32.0002 15.0118H36.4383C33.6302 11.0618 29.0502 8.61183 24.0002 8.61183C17.3402 8.61183 11.4902 12.8618 9.45021 19.1918C8.91021 20.8718 7.10821 21.8018 5.4192 21.2518C3.7382 20.7112 2.8142 18.9048 3.3582 17.2238C6.2592 8.24583 14.5502 2.21182 24.0002 2.21182C31.1362 2.21182 37.6103 5.66382 41.6003 11.2208V3.81182C41.6003 2.04282 43.0333 0.611816 44.8003 0.611816C46.5673 0.611816 48.0003 2.04282 48.0003 3.81182Z" fill="#2E2640"/>
<path d="M44.6401 31.992C41.7401 40.982 33.4401 47.012 23.91 47.012C16.86 47.012 10.39 43.562 6.40001 38.002V45.412C6.40001 47.181 4.96701 48.612 3.20001 48.612C1.433 48.612 0 47.181 0 45.412V31.012C0 29.243 1.433 27.812 3.20001 27.812H16C17.767 27.812 19.2 29.243 19.2 31.012C19.2 32.781 17.767 34.212 16 34.212H11.56C14.37 38.162 18.95 40.612 24 40.612C30.658 40.612 36.5101 36.359 38.5501 30.032C39.0923 28.354 40.8881 27.4289 42.5801 27.9729C44.2601 28.422 45.1901 30.312 44.6401 31.992Z" fill="#FF4545"/>
</svg>
